<mxfile host="app.diagrams.net" modified="2023-10-23T15:36:55.570Z" agent="Mozilla/5.0 (Windows NT 10.0; Win64; x64) AppleWebKit/537.36 (KHTML, like Gecko) Chrome/118.0.0.0 Safari/537.36" version="22.0.6" etag="lfm-X2f_GfK3jAbH_QYe" type="github">
  <diagram name="Page-1" id="a0bYz7ErNpyUTwfXEgoz">
    <mxGraphModel>
      <root>
        <mxCell id="0" />
        <mxCell id="1" parent="0" />
      </root>
    </mxGraphModel>
  </diagram>
</mxfile>
